# xmcd
#
# Track frame offsets: 
#        183
#        16758
#        34633
#        52520
#        69798
#        85025
#        101148
#        118780
#        137540
#
# Disc length: 2056 seconds
#
# Revision: 2
# Processed by: cddbd v1.5.2PL0 Copyright (c) Steve Scherf et al.
# Submitted via: ExactAudioCopy v1.1
#
DISCID=5f080609
DTITLE=Ann Peebles - Call Me
DYEAR=1989
DGENRE=Soul
TTITLE0=Call Me
TTITLE1=Buckle Up
TTITLE2=Didn't We Do It
TTITLE3=Your Well's Gone Dry
TTITLE4=One Bad Turn
TTITLE5=I Found Somebody New
TTITLE6=If You're Going To Leave
TTITLE7=I Like A Man
TTITLE8=I Won't Let Your Heart Roam
EXTD=Noylo\nWAY 269509 2
EXTT0=
EXTT1=
EXTT2=
EXTT3=
EXTT4=
EXTT5=
EXTT6=
EXTT7=
EXTT8=
PLAYORDER=
